# xmcd
#
# Track frame offsets:
#	312
#	12265
#	27647
#	38250
#	61315
#	71305
#	84807
#	97047
#	108012
#	123377
#	134857
#	146110
#	159660
#	172857
#	183327
#	196577
#	207135
#	219050
#	231762
#	244710
#	258750
#	270467
#	284137
#	295667
#	308577
#
# Disc length: 4286 seconds
#
# Revision: 2
# Processed by: cddbd v1.5.2PL0 Copyright (c) Steve Scherf et al.
# Submitted via: audiograbber 1.83.01
#
DISCID=5610ba19
DTITLE=Sampler Soul - Atlantic rhythm and blues 1947-1974 - Vol. 4 1958-1962
DYEAR=1985
DGENRE=Soul
TTITLE0=Baker, LaVern - I cried a tear
TTITLE1=Charles, Ray - The right time
TTITLE2=Coasters, The - Charlie Brown
TTITLE3=Charles, Ray - What'd I say (Parts 1 and 2)
TTITLE4=Drifters, The - There goes my baby
TTITLE5=Coasters, The - Along came Jones
TTITLE6=Coasters, The - Poison Ivy
TTITLE7=Drifters, The - Dance with me
TTITLE8=Charles, Ray - Just for a thrill
TTITLE9=Drifters, The - This magic moment
TTITLE10=Drifters, The - Save the last dance for me
TTITLE11=Coasters, The - Shopping for clothes
TTITLE12=King, Ben E. - Spanish Harlem
TTITLE13=King, Ben E. - Young boy blues
TTITLE14=King, Ben E. - Stand by me
TTITLE15=Thomas, Carla - Gee whiz
TTITLE16=Baker, LaVern - Saved
TTITLE17=Burke, Solomon - Just out of reach (of my two empty arms)
TTITLE18=Coasters, The - Little Egypt
TTITLE19=King, Ben E. - Amor
TTITLE20=Mar-Keys, The - Last night
TTITLE21=Bell, William - You don't miss your water
TTITLE22=Burke, Solomon - Cry to me
TTITLE23=King, Ben E. - Don't play that song (you lied)
TTITLE24=Booker T. and The MG's - Green onions
EXTD=
EXTT0=
EXTT1=
EXTT2=
EXTT3=
EXTT4=
EXTT5=
EXTT6=
EXTT7=
EXTT8=
EXTT9=
EXTT10=
EXTT11=
EXTT12=
EXTT13=
EXTT14=
EXTT15=
EXTT16=
EXTT17=
EXTT18=
EXTT19=
EXTT20=
EXTT21=
EXTT22=
EXTT23=
EXTT24=
PLAYORDER=
